<?xml version="1.0" encoding="UTF-8" standalone="no"?>

<!-- ####################################################################
Icon-Name: 			Keyboard
Iconpack:			Fontaudio
Iconpack-Homepage: 	https://github.com/fefanto/fontaudio
Iconpack-License:	https://github.com/fefanto/fontaudio#license

#####################################################################-->


<svg xmlns="http://www.w3.org/2000/svg"
     width="48"
     height="48">
    <path d="M48 204.005A4 4 0 0 0 51.996 208H65.52A3.987 3.987 0 0 0 69.504 204.002L69.274 129.217A1 1 0 0 1 70.277 128.207H84.006A3.9969999999999994 3.9969999999999994 0 0 0 88 124.204V52.006A4.006 4.006 0 0 0 84 48H52C49.79 48 48 49.797 48 51.995V204.005zM208 204.677C208 206.512 206.49 208 204.621 208H190.707C188.841 208 187.328 206.512 187.328 204.673L187.594 129.037A0.835 0.835 0 0 0 186.749 128.207H170.872C169.01 128.207 167.5 126.712 167.5 124.889V51.319C167.5 49.486 169.014 48 170.883 48H204.617C206.485 48 208 49.482 208 51.323V204.677zM116.265 203.576A4.083 4.083 0 0 0 120.27 207.649L135.711 207.924A3.92 3.92 0 0 0 139.716 203.992V128.554C139.716 128.001 140.168 127.567 140.721 127.586L148.011 127.833A3.8299999999999996 3.8299999999999996 0 0 0 152 123.973V51.938A4 4 0 0 0 148 47.942H108.354A4.017 4.017 0 0 0 104.335 51.938L104 123.973A3.9740000000000006 3.9740000000000006 0 0 0 107.987 127.968H115.26C115.815 127.968 116.265 128.416 116.265 128.975V203.575z"
          style="fill:#000000;
                 stroke:none
                 stroke-width:0;
                 stroke-linecap:flat;
                 stroke-linejoin:miter;"
          transform="matrix(0.299891291923466,0,0,-0.299891291923466,-14.3860853662036,62.3773887200809)" />
</svg>